<?xml version="1.0" standalone="no"?>
<!DOCTYPE svg PUBLIC "-//W3C//DTD SVG 20010904//EN"
 "http://www.w3.org/TR/2001/REC-SVG-20010904/DTD/svg10.dtd">
<svg version="1.0" xmlns="http://www.w3.org/2000/svg"
 width="648.000000pt" height="385.000000pt" viewBox="0 0 648.000000 385.000000"
 preserveAspectRatio="xMidYMid meet">

<g transform="translate(0.000000,385.000000) scale(0.100000,-0.100000)"
fill="#000000" stroke="none">
<path d="M5198 3020 l3 -630 -403 2 c-222 0 -374 4 -338 7 36 4 75 12 87 19
51 28 71 128 35 172 -15 19 -30 23 -80 25 -34 1 -62 -1 -62 -5 0 -5 9 -6 20
-3 14 4 20 0 20 -11 0 -9 7 -16 16 -16 9 0 14 -7 12 -17 -1 -10 1 -24 6 -32 5
-8 4 -16 -3 -20 -6 -4 -9 -15 -5 -24 4 -13 1 -17 -15 -17 -13 0 -21 -6 -21
-16 0 -10 -6 -14 -14 -11 -7 3 -19 0 -25 -6 -9 -9 -14 -9 -20 1 -4 7 -15 10
-24 6 -11 -4 -17 -1 -17 9 0 8 -9 17 -21 20 -13 4 -18 10 -14 17 4 7 1 16 -6
21 -12 8 -11 12 3 23 13 10 15 15 5 25 -9 9 -7 13 10 17 15 4 20 11 16 22 -5
12 -1 14 15 10 12 -4 22 -2 22 3 0 5 -17 8 -38 7 -22 0 -44 2 -50 6 -15 9 -59
-35 -68 -68 -10 -39 4 -92 30 -117 40 -39 24 -49 -79 -49 -77 0 -95 -3 -109
-19 -15 -17 -15 -19 -1 -25 9 -3 50 -6 90 -6 46 0 75 -4 77 -11 3 -9 9 -9 25
0 15 8 129 11 385 10 299 -1 353 -4 305 -13 -32 -6 -55 -15 -51 -19 5 -4 -2
-10 -14 -14 -25 -6 -27 -14 -10 -31 9 -9 6 -12 -16 -12 -33 0 -31 -19 5 -38
15 -8 41 -11 72 -7 37 4 47 3 41 -6 -5 -9 3 -10 34 -5 36 5 41 4 35 -11 -4
-11 -3 -14 5 -9 8 5 12 -1 12 -18 0 -30 8 -33 26 -8 9 12 16 14 24 6 8 -8 4
-19 -14 -42 -14 -16 -26 -40 -26 -53 1 -22 3 -21 36 16 91 103 97 158 28 229
-11 12 -26 20 -32 18 -6 -2 -19 1 -29 7 -14 8 2 10 65 11 l82 0 0 655 0 655
-22 0 -23 0 3 -630z"/>
<path d="M3172 3493 c-121 -4 -123 -4 -120 -26 3 -21 7 -22 131 -25 l127 -3 0
31 c0 16 -3 29 -7 28 -5 -1 -63 -4 -131 -5z"/>
<path d="M3702 3454 c-22 -15 -22 -16 -22 -317 0 -166 4 -307 8 -313 21 -32
53 -34 480 -34 419 0 430 0 456 21 l26 20 0 293 c0 282 -1 294 -21 320 l-20
26 -443 0 c-383 0 -444 -2 -464 -16z m148 -254 c0 -38 2 -40 30 -40 28 0 30 2
30 41 0 38 1 40 28 37 l27 -3 0 -105 0 -105 -25 0 c-22 0 -25 5 -28 43 -3 39
-5 42 -33 42 -28 0 -29 -2 -29 -46 0 -41 -2 -45 -22 -42 -22 3 -23 8 -26 111
l-3 107 26 0 c23 0 25 -4 25 -40z m290 15 c0 -20 -5 -25 -25 -25 -24 0 -24 -2
-27 -82 -3 -81 -4 -83 -28 -83 -24 0 -25 2 -28 83 -3 80 -3 82 -27 82 -20 0
-25 5 -25 25 0 25 1 25 80 25 79 0 80 0 80 -25z m93 -22 l29 -47 26 48 c22 39
30 46 51 44 l26 -3 0 -105 0 -105 -25 0 c-23 0 -25 4 -30 54 l-5 54 -17 -36
c-10 -21 -22 -37 -26 -37 -5 0 -17 16 -28 36 l-19 35 -5 -53 c-5 -49 -7 -53
-30 -53 -25 0 -25 0 -26 100 0 55 1 103 3 108 2 4 14 7 26 7 16 0 31 -14 50
-47z m217 -33 l0 -80 35 0 c32 0 35 -2 35 -30 l0 -30 -60 0 -60 0 0 110 0 110
25 0 c25 0 25 -1 25 -80z"/>
<path d="M3050 3105 c0 -12 16 -15 85 -15 69 0 85 3 85 15 0 12 -16 15 -85 15
-69 0 -85 -3 -85 -15z"/>
<path d="M3050 2940 c0 -19 7 -20 220 -20 213 0 220 1 220 20 0 19 -7 20 -220
20 -213 0 -220 -1 -220 -20z"/>
<path d="M4870 2749 c0 -7 -10 -9 -25 -5 -20 5 -25 3 -25 -14 0 -13 -7 -20
-20 -20 -16 0 -19 -5 -14 -24 4 -17 1 -25 -13 -30 -17 -7 -17 -8 0 -17 12 -7
15 -17 11 -35 -5 -21 -3 -25 12 -22 12 2 19 -3 19 -12 0 -21 18 -32 27 -17 6
9 12 7 23 -7 14 -18 16 -19 28 -3 18 25 57 11 57 -20 0 -49 53 -72 85 -39 14
15 15 59 1 72 -14 13 -59 13 -68 0 -5 -8 -11 -7 -19 1 -15 15 -3 34 18 26 13
-5 15 -2 10 17 -3 13 -1 30 5 38 9 10 9 15 -1 22 -8 4 -11 16 -6 29 5 17 2 21
-14 21 -15 0 -21 6 -21 21 0 15 -4 19 -19 14 -11 -3 -22 -1 -26 5 -8 13 -25
13 -25 -1z m46 -72 c16 -1 2 -48 -19 -61 -21 -13 -50 2 -56 29 -4 23 28 48 49
39 8 -3 20 -7 26 -7z m99 -158 c0 -7 -8 -15 -17 -17 -18 -3 -25 18 -11 32 10
10 28 1 28 -15z"/>
<path d="M3981 2671 c-7 -5 -22 -6 -32 -4 -10 3 -19 0 -19 -6 0 -6 -11 -16
-24 -21 -25 -9 -44 -69 -30 -92 4 -7 8 -22 9 -35 0 -13 11 -33 24 -46 21 -20
22 -20 13 -2 -10 22 -6 45 9 45 5 0 9 -7 9 -15 0 -8 5 -15 10 -15 6 0 10 6 10
13 0 8 7 28 16 45 l15 31 50 -19 c27 -11 59 -20 70 -20 29 0 73 47 64 68 -4 9
-7 25 -7 34 1 22 -13 31 -55 35 -20 2 -33 -1 -33 -8 0 -8 -4 -8 -15 1 -8 6
-19 9 -24 5 -6 -3 -19 -2 -29 4 -10 5 -24 6 -31 2z"/>
<path d="M5037 2654 c-13 -13 -7 -42 10 -48 21 -8 36 6 31 30 -3 19 -29 30
-41 18z m23 -20 c0 -8 -5 -12 -10 -9 -6 4 -8 11 -5 16 9 14 15 11 15 -7z"/>
<path d="M4390 2545 c-15 -19 -4 -52 21 -60 38 -12 65 35 37 63 -16 16 -43 15
-58 -3z"/>
<path d="M3038 2365 l4 -25 391 0 391 0 -34 -35 c-18 -19 -32 -36 -29 -39 2
-2 29 -18 59 -37 30 -18 57 -34 60 -37 3 -2 -8 -14 -24 -27 -28 -23 -29 -23
-49 -4 -11 10 -24 16 -28 13 -4 -2 -10 0 -14 6 -3 5 -15 15 -25 20 -17 9 -24
2 -60 -71 l-41 -81 20 -41 c12 -25 51 -68 96 -107 l76 -65 -5 -107 -6 -108
185 0 184 0 -5 98 c-3 53 -12 125 -20 160 -8 37 -12 85 -8 115 l6 52 -39 21
c-21 12 -78 44 -128 73 l-90 52 3 49 c4 55 -9 87 -41 100 -20 7 -18 10 23 29
l45 21 -451 0 -451 0 5 -25z m796 -337 c4 -38 3 -68 -1 -68 -4 0 -27 19 -50
42 l-43 42 37 38 c44 45 48 41 57 -54z m98 -168 c40 0 59 -41 33 -70 -10 -11
-24 -20 -31 -20 -19 0 -73 33 -79 48 -7 18 27 63 40 51 5 -5 22 -9 37 -9z"/>
<path d="M4140 2280 c11 -26 20 -67 20 -99 l0 -53 -45 36 c-25 21 -45 34 -45
31 0 -19 78 -120 140 -179 56 -55 75 -67 93 -62 12 3 28 6 35 6 6 0 12 7 12
15 0 8 6 15 14 15 7 0 19 7 26 15 9 11 8 20 -9 44 -12 16 -21 35 -21 42 0 7
-13 0 -30 -16 -16 -16 -32 -27 -34 -24 -2 2 -33 54 -69 114 -36 61 -74 121
-86 135 l-21 25 20 -45z"/>
<path d="M1243 2225 c-24 -10 -33 -11 -33 -2 0 7 -7 4 -15 -7 -7 -10 -18 -15
-24 -12 -16 10 -25 -100 -12 -162 6 -31 12 -68 13 -82 2 -18 11 -27 35 -33 51
-15 75 -3 112 58 21 34 37 52 41 45 5 -8 9 -4 13 9 3 12 13 21 22 21 9 0 30
13 48 30 30 28 31 30 10 30 -13 0 -23 5 -23 10 0 6 6 10 13 10 6 0 0 8 -15 18
-14 9 -41 29 -60 44 -43 35 -84 42 -125 23z"/>
<path d="M4422 2142 c-23 -18 -23 -19 -8 -57 l17 -39 25 25 c22 22 23 28 13
57 -13 37 -16 38 -47 14z"/>
<path d="M4547 2073 c-4 -3 -7 -48 -7 -99 0 -87 1 -92 23 -98 42 -11 242 -7
255 6 15 15 16 152 2 179 -10 17 -22 19 -139 19 -70 0 -131 -3 -134 -7z m143
-96 c-16 -68 -33 -96 -26 -42 8 58 28 122 33 107 3 -7 -1 -36 -7 -65z m-40 35
c0 -5 -14 -15 -32 -23 l-31 -15 31 -13 c18 -8 32 -17 32 -22 0 -13 -6 -11 -51
11 -44 23 -43 34 4 54 39 17 47 19 47 8z m103 -7 c51 -21 53 -32 8 -55 -45
-22 -51 -24 -51 -11 0 5 14 14 32 22 l31 13 -31 15 c-18 8 -32 18 -32 23 0 11
2 10 43 -7z"/>
<path d="M2113 1993 c-9 -3 -13 -28 -13 -73 l0 -69 33 -6 c17 -3 66 -5 107 -3
l75 3 3 57 c5 91 -3 98 -106 97 -48 0 -93 -3 -99 -6z m71 -35 c-10 -29 -10
-47 0 -77 6 -17 5 -22 -5 -19 -29 10 -31 118 -2 118 10 0 12 -6 7 -22z m66 3
c0 -11 4 -22 9 -25 12 -8 -11 -76 -26 -76 -15 0 -17 16 -3 25 14 9 13 68 -2
83 -9 9 -8 12 5 12 10 0 17 -8 17 -19z"/>
<path d="M4350 1947 c0 -20 111 -310 116 -304 2 2 -21 71 -52 153 -51 137 -64
167 -64 151z"/>
<path d="M5356 1928 c-3 -13 -6 -98 -6 -189 0 -155 1 -168 21 -194 16 -20 28
-26 46 -22 25 5 25 4 18 -56 -4 -34 -14 -80 -22 -102 -16 -47 -74 -135 -88
-135 -5 1 -21 10 -34 21 l-24 20 23 24 c18 19 25 40 28 86 4 56 3 61 -14 55
-99 -30 -177 -29 -242 1 -29 14 -37 14 -75 0 -23 -8 -87 -18 -142 -20 -55 -3
-117 -10 -137 -17 -42 -12 -47 -24 -68 -155 -6 -38 -27 -142 -46 -230 -33
-151 -37 -162 -70 -190 -27 -24 -36 -42 -44 -84 -13 -69 -13 -101 0 -101 6 0
33 20 59 45 26 25 55 45 64 45 26 0 47 29 47 66 0 22 5 34 14 34 9 0 19 20 27
53 6 28 20 70 29 92 l17 40 7 -77 c7 -67 5 -81 -11 -105 -11 -16 -27 -47 -38
-71 -10 -23 -24 -47 -32 -53 -18 -16 -16 -56 3 -63 20 -8 94 11 94 24 0 6 8 5
19 -2 31 -19 54 7 47 52 -4 28 -1 38 17 51 76 55 206 68 292 30 59 -26 96 -58
88 -77 -3 -8 -2 -25 1 -39 8 -32 43 -34 55 -3 l8 23 7 -23 c10 -29 44 -29 55
1 11 30 -2 61 -27 65 -12 2 -24 12 -27 22 -16 51 -154 130 -225 130 -28 0 -30
3 -30 38 0 23 7 44 18 54 33 31 72 78 72 88 0 6 50 10 125 10 123 0 125 0 123
23 -1 12 13 43 30 69 58 85 84 170 90 294 3 73 0 129 -9 165 -7 30 -16 110
-19 179 l-5 125 -51 3 c-46 3 -52 1 -58 -20z m-428 -685 c-10 -2 -28 -2 -40 0
-13 2 -5 4 17 4 22 1 32 -1 23 -4z m330 0 c-10 -2 -26 -2 -35 0 -10 3 -2 5 17
5 19 0 27 -2 18 -5z m-332 -189 c19 -20 34 -37 34 -38 0 -1 -25 -1 -55 -1 -55
0 -55 0 -55 31 0 57 27 59 76 8z m69 -108 l0 -39 -64 -13 c-36 -8 -66 -12 -68
-11 -1 2 -5 28 -9 58 l-6 54 73 -5 74 -5 0 -39z"/>
<path d="M2652 1890 c-48 -29 -73 -94 -79 -199 -6 -132 -8 -134 -48 -128 -41
7 -44 -3 -16 -49 26 -42 82 -68 138 -61 48 5 85 32 109 80 12 21 20 27 35 22
29 -9 69 30 69 67 0 31 27 64 65 78 15 6 25 18 25 29 0 74 -37 125 -100 136
-21 4 -56 15 -77 26 -48 24 -80 24 -121 -1z"/>
<path d="M1647 1838 c-15 -105 -19 -196 -9 -202 10 -6 22 61 22 128 0 92 -13
86 202 86 l191 0 -7 -102 c-4 -57 -9 -110 -12 -119 -6 -21 -38 -27 -120 -25
-59 2 -64 1 -58 -17 3 -11 -2 -27 -13 -39 l-18 -20 110 7 c61 4 111 8 113 10
7 6 21 119 27 223 l8 112 -216 0 -215 0 -5 -42z"/>
<path d="M1698 1803 c7 -3 16 -2 19 1 4 3 -2 6 -13 5 -11 0 -14 -3 -6 -6z"/>
<path d="M1780 1735 l0 -45 60 0 60 0 0 45 0 45 -60 0 -60 0 0 -45z m60 -12
c-11 -17 -11 -17 -6 0 3 10 6 24 7 30 0 9 2 9 5 0 3 -7 0 -20 -6 -30z m-23 12
c0 -8 -4 -15 -8 -15 -11 0 -20 16 -12 24 11 11 20 7 20 -9z m65 0 c0 -5 -5
-11 -10 -13 -5 -1 -9 4 -9 13 0 9 4 14 9 13 5 -2 10 -8 10 -13z"/>
<path d="M2018 1680 c-1 -28 0 -50 5 -50 4 0 7 23 7 50 0 65 -7 65 -12 0z"/>
<path d="M844 1706 c-16 -12 -19 -26 -18 -94 1 -52 7 -90 18 -111 25 -47 82
-107 115 -121 26 -11 29 -17 36 -77 4 -36 13 -84 21 -106 24 -68 27 -100 9
-94 -19 8 -52 -27 -60 -64 -4 -16 -11 -31 -16 -34 -28 -18 2 -25 97 -25 106 0
106 0 135 -31 16 -17 29 -35 29 -39 0 -4 7 -11 16 -14 11 -4 14 -16 12 -43 -3
-36 -4 -37 -58 -48 -70 -14 -109 -35 -148 -79 -17 -20 -36 -36 -41 -36 -19 0
-33 -38 -21 -60 13 -24 38 -26 46 -5 6 14 8 13 19 -1 19 -27 43 -10 47 33 3
33 8 41 48 63 38 21 58 25 125 25 67 0 87 -4 125 -25 42 -24 45 -28 42 -63 -4
-43 22 -63 43 -33 11 14 13 15 19 1 10 -26 31 -17 59 26 15 22 27 44 27 48 0
4 -17 22 -39 39 -49 39 -67 80 -76 170 l-7 72 56 0 c38 0 56 4 56 13 -1 19
-36 94 -49 101 -22 14 -10 26 24 26 l35 0 0 -54 c0 -30 11 -97 25 -148 14 -51
25 -105 25 -119 0 -14 7 -49 15 -77 14 -45 20 -52 50 -61 18 -5 50 -21 69 -36
29 -22 42 -26 70 -21 19 4 40 14 47 23 12 14 10 19 -15 37 -16 12 -48 39 -72
61 -41 39 -43 43 -58 140 -8 55 -21 158 -27 229 -8 80 -18 133 -26 142 -8 7
-30 16 -51 19 -20 4 -77 17 -127 29 -80 20 -94 21 -124 9 -91 -38 -254 -23
-272 24 -12 31 -7 39 31 46 99 20 190 138 190 248 0 43 -15 90 -33 101 -7 4
-105 8 -218 8 -162 0 -209 -3 -225 -14z m446 -596 c0 -5 -22 -10 -49 -10 -28
0 -53 5 -56 10 -4 6 15 10 49 10 31 0 56 -4 56 -10z m40 -185 c0 -8 -4 -15 -9
-15 -13 0 -22 16 -14 24 11 11 23 6 23 -9z m19 -62 c15 -52 14 -62 -6 -58 -74
15 -73 14 -73 49 0 40 5 46 41 46 24 0 30 -6 38 -37z m508 -225 c-3 -8 -6 -5
-6 6 -1 11 2 17 5 13 3 -3 4 -12 1 -19z"/>
<path d="M1955 1681 c-3 -6 3 -15 14 -20 16 -9 18 -8 14 9 -6 21 -18 26 -28
11z"/>
<path d="M4575 1630 c-119 -6 -119 -6 59 -8 99 -1 177 0 175 3 -9 9 -114 11
-234 5z"/>
<path d="M1521 1546 c-12 -14 -1 -16 115 -16 102 0 126 3 116 13 -8 7 -51 13
-116 15 -84 3 -104 1 -115 -12z"/>
<path d="M3965 1538 c-5 -17 -55 -329 -55 -345 0 -8 15 -13 40 -13 46 0 48 2
65 94 l11 61 16 -46 c13 -39 15 -77 11 -227 -4 -122 -2 -181 5 -186 7 -4 9
-25 5 -54 -6 -55 7 -72 58 -78 17 -2 46 -13 64 -24 39 -24 98 -26 120 -4 22
23 16 34 -38 63 -25 14 -56 38 -67 54 -12 15 -29 27 -38 27 -12 0 -13 3 -4 12
7 7 12 28 12 47 0 20 9 106 20 191 19 144 26 363 13 418 -5 21 -9 22 -119 22
-83 0 -116 -3 -119 -12z"/>
<path d="M3344 1386 c-3 -8 -4 -25 -2 -38 3 -21 9 -23 61 -26 l57 -3 0 41 0
40 -55 0 c-39 0 -57 -4 -61 -14z m66 -22 c0 -8 5 -14 11 -14 6 0 9 7 5 15 -6
17 9 20 20 4 7 -12 -12 -29 -33 -29 -7 0 -13 9 -13 21 0 12 -4 17 -11 14 -6
-4 -8 -13 -5 -21 3 -8 0 -11 -10 -7 -19 7 -18 20 3 32 21 11 33 6 33 -15z"/>
<path d="M3180 1334 c-9 -41 -9 -59 -1 -67 8 -8 11 -7 11 4 0 7 3 38 6 67 8
69 -2 67 -16 -4z"/>
<path d="M2383 1335 c-28 -19 -35 -68 -22 -139 16 -86 61 -151 130 -186 34
-18 36 -22 43 -82 3 -35 13 -87 22 -115 l17 -53 -31 -31 c-17 -18 -34 -45 -37
-60 -4 -16 -11 -31 -16 -34 -5 -4 -9 -13 -9 -21 0 -11 20 -14 106 -14 103 0
106 -1 135 -29 16 -16 29 -34 29 -39 0 -5 7 -13 16 -16 10 -4 14 -16 12 -38
-3 -29 -7 -33 -53 -43 -71 -16 -129 -49 -161 -90 -14 -19 -33 -35 -40 -35 -21
0 -29 -49 -11 -67 13 -14 19 -14 31 -3 13 10 19 10 31 0 21 -17 45 4 45 40 0
15 8 34 18 43 47 43 177 60 252 33 26 -10 36 -19 38 -39 4 -29 22 -38 22 -10
0 9 3 13 7 9 4 -4 6 -23 4 -42 -3 -41 24 -59 45 -29 12 16 14 17 20 2 10 -27
35 -20 47 13 7 17 19 30 29 30 42 0 28 32 -22 54 -44 18 -78 50 -85 79 -2 12
-8 57 -13 100 l-8 77 62 0 c59 0 87 11 64 25 -5 3 -10 14 -10 24 0 10 -11 35
-25 55 l-24 36 39 0 c40 0 40 0 40 -37 0 -21 11 -74 25 -118 14 -44 32 -136
40 -205 15 -122 28 -161 41 -127 4 13 10 14 24 7 23 -12 160 -13 160 -2 0 14
-31 38 -78 61 -23 12 -47 32 -52 44 -15 39 -32 176 -39 328 -8 171 -13 183
-89 194 -26 3 -84 15 -129 25 -75 18 -84 18 -113 3 -54 -26 -217 -30 -256 -5
-6 4 -14 21 -18 38 -7 29 -5 31 36 43 42 13 100 49 126 81 7 8 25 39 39 68 21
44 25 64 21 113 -7 100 -6 99 -247 99 -166 0 -211 -3 -228 -15z m507 -780 c0
-10 -10 -15 -27 -15 -27 1 -27 1 -9 15 25 19 36 19 36 0z m14 -57 c3 -13 6
-34 6 -47 0 -22 -3 -23 -37 -17 -21 3 -44 6 -50 6 -8 0 -13 15 -13 40 l0 40
44 0 c37 0 45 -4 50 -22z"/>
<path d="M3267 1300 c-4 -17 -2 -18 14 -9 11 5 17 14 14 20 -10 15 -22 10 -28
-11z"/>
<path d="M5660 1221 c0 -15 -4 -19 -17 -14 -16 6 -16 5 0 -17 9 -14 17 -37 17
-52 0 -26 -1 -26 -27 -12 -37 19 -41 18 -45 -8 -2 -13 -7 -22 -13 -20 -5 2 -9
12 -7 24 1 14 -2 19 -12 15 -7 -3 -19 0 -25 6 -9 9 -11 8 -6 -5 5 -12 2 -18
-6 -18 -8 -1 -2 -7 12 -15 34 -19 45 -45 19 -45 -26 0 -33 -15 -20 -41 17 -31
2 -38 -20 -9 -11 14 -20 19 -20 12 0 -8 -5 -10 -12 -6 -10 6 -10 5 -1 -8 7 -8
10 -18 6 -21 -3 -4 5 -7 20 -7 14 0 29 -4 32 -10 3 -5 2 -10 -4 -10 -12 0 -3
-88 10 -106 4 -5 14 -40 21 -77 14 -76 18 -79 107 -80 89 0 95 4 109 80 7 37
17 72 21 77 13 18 22 106 10 106 -6 0 -7 5 -4 10 3 6 18 10 32 10 15 0 23 3
20 7 -4 3 -2 12 5 20 9 11 7 12 -7 7 -14 -6 -16 -4 -11 7 4 8 -1 4 -10 -8 -21
-29 -38 -30 -24 -2 14 25 6 49 -15 49 -23 0 -18 16 13 39 15 11 22 21 15 21
-7 0 -10 7 -7 18 5 14 4 14 -6 -2 -10 -15 -14 -16 -21 -5 -6 10 -9 6 -9 -13 0
-36 -18 -45 -26 -13 -7 28 -40 34 -63 13 -11 -11 -12 -7 -9 22 3 19 9 44 13
55 8 18 7 18 -8 7 -14 -12 -16 -11 -12 7 2 11 0 23 -6 26 -5 4 -9 -3 -9 -14z
m-48 -353 c-9 -9 -15 -9 -24 0 -9 9 -7 12 12 12 19 0 21 -3 12 -12z m16 -73
c5 -52 -6 -94 -19 -74 -14 22 -12 121 4 117 6 -3 13 -22 15 -43z"/>
<path d="M3397 1201 c-4 -16 -14 -31 -24 -34 -28 -7 56 -8 140 -1 43 4 77 11
77 16 0 6 -22 7 -52 4 -47 -5 -50 -4 -27 7 40 18 12 37 -54 37 -52 0 -55 -1
-60 -29z"/>
<path d="M3062 1175 c-11 -13 6 -15 130 -15 137 1 141 2 103 15 -55 20 -215
20 -233 0z"/>
<path d="M3914 1078 c3 -24 8 -80 12 -126 4 -45 8 -81 9 -80 2 2 10 44 19 93
8 50 18 105 22 123 6 32 6 32 -31 32 l-37 0 6 -42z"/>
<path d="M3938 753 c4 -101 16 -123 58 -107 46 16 51 37 19 75 -15 19 -36 53
-46 76 -10 24 -22 43 -26 43 -4 0 -6 -39 -5 -87z"/>
<path d="M3835 760 c3 -5 8 -10 11 -10 2 0 4 5 4 10 0 6 -5 10 -11 10 -5 0 -7
-4 -4 -10z"/>
</g>
</svg>
